<?xml version="1.0" standalone="no"?><!DOCTYPE svg PUBLIC "-//W3C//DTD SVG 1.1//EN" "http://www.w3.org/Graphics/SVG/1.1/DTD/svg11.dtd"><svg width="100%" height="100%" viewBox="0 0 346 77" version="1.1" xmlns="http://www.w3.org/2000/svg" xmlns:xlink="http://www.w3.org/1999/xlink" xml:space="preserve" style="fill-rule:evenodd;clip-rule:evenodd;stroke-linejoin:round;stroke-miterlimit:1.41421;"><g><g><path d="M38.125,74.488l0,-8.816l-2.848,0l0,11.2l7.6,0l0,-2.384l-4.752,0Z" style="fill:#6f86a0;fill-rule:nonzero;"/><path d="M59.917,65.672l-2.832,0l0,6.496c0,1.52 -0.912,2.448 -2.256,2.448c-1.36,0 -2.336,-0.928 -2.336,-2.448l0,-6.496l-2.848,0l0,6.496c0,2.96 2.016,4.832 5.168,4.832c3.136,0 5.104,-1.872 5.104,-4.832l0,-6.496Z" style="fill:#6f86a0;fill-rule:nonzero;"/><path d="M74.061,71.016l3.696,-5.344l-3.344,0l-2.16,3.264l-2.16,-3.264l-3.312,0l3.744,5.472l-4,5.728l3.312,0l2.416,-3.568l2.416,3.568l3.408,0l-4.016,-5.856Z" style="fill:#6f86a0;fill-rule:nonzero;"/><path d="M94.989,65.672l-2.832,0l0,6.496c0,1.52 -0.912,2.448 -2.256,2.448c-1.36,0 -2.336,-0.928 -2.336,-2.448l0,-6.496l-2.848,0l0,6.496c0,2.96 2.016,4.832 5.168,4.832c3.136,0 5.104,-1.872 5.104,-4.832l0,-6.496Z" style="fill:#6f86a0;fill-rule:nonzero;"/><path d="M109.389,76.872l3.232,0l-2.352,-3.696c1.312,-0.656 2.032,-1.888 2.032,-3.6c0,-2.496 -1.696,-3.904 -4.656,-3.904l-5.008,0l0,11.2l2.848,0l0,-3.152l2.24,0l1.664,3.152ZM105.485,71.48l0,-3.568l2.16,0c1.232,0 1.952,0.592 1.952,1.76c0,1.184 -0.72,1.808 -1.952,1.808l-2.16,0Z" style="fill:#6f86a0;fill-rule:nonzero;"/><path d="M125.485,73.256l4.064,-7.584l-2.848,0l-2.64,4.88l-2.704,-4.88l-2.848,0l4.144,7.664l0,3.536l2.832,0l0,-3.616Z" style="fill:#6f86a0;fill-rule:nonzero;"/><path d="M150.813,65.576c-3.456,0 -6.048,2.416 -6.048,5.68c0,3.28 2.592,5.744 6.048,5.744c3.472,0 6.064,-2.48 6.064,-5.744c0,-3.248 -2.592,-5.68 -6.064,-5.68ZM150.845,67.96c1.728,0 3.104,1.424 3.104,3.312c0,1.888 -1.376,3.344 -3.104,3.344c-1.712,0 -3.168,-1.456 -3.168,-3.344c0,-1.888 1.44,-3.312 3.168,-3.312Z" style="fill:#6f86a0;fill-rule:nonzero;"/><path d="M170.733,76.872l3.232,0l-2.352,-3.696c1.312,-0.656 2.032,-1.888 2.032,-3.6c0,-2.496 -1.696,-3.904 -4.656,-3.904l-5.008,0l0,11.2l2.848,0l0,-3.152l2.24,0l1.664,3.152ZM166.829,71.48l0,-3.568l2.16,0c1.232,0 1.952,0.592 1.952,1.76c0,1.184 -0.72,1.808 -1.952,1.808l-2.16,0Z" style="fill:#6f86a0;fill-rule:nonzero;"/><path d="M184.013,74.488l0,-8.816l-2.848,0l0,11.2l7.6,0l0,-2.384l-4.752,0Z" style="fill:#6f86a0;fill-rule:nonzero;"/><path d="M203.213,74.808l0.8,2.064l3.04,0l-4.72,-11.2l-2.928,0l-4.832,11.2l2.928,0l0.816,-2.064l4.896,0ZM202.381,72.648l-3.232,0l1.632,-4.144l1.6,4.144Z" style="fill:#6f86a0;fill-rule:nonzero;"/><path d="M224.029,76.872l0,-11.2l-2.656,0l0,6.912l-5.168,-6.912l-2.512,0l0,11.2l2.672,0l0,-6.896l5.152,6.896l2.512,0Z" style="fill:#6f86a0;fill-rule:nonzero;"/><path d="M231.869,65.672l0,11.2l4.704,0c3.6,0 6.064,-2.288 6.064,-5.6c0,-3.328 -2.432,-5.6 -5.952,-5.6l-4.816,0ZM234.717,67.944l1.904,0c1.808,0 3.12,1.36 3.12,3.344c0,1.968 -1.248,3.312 -2.992,3.312l-2.032,0l0,-6.656Z" style="fill:#6f86a0;fill-rule:nonzero;"/><path d="M254.845,65.576c-3.456,0 -6.048,2.416 -6.048,5.68c0,3.28 2.592,5.744 6.048,5.744c3.472,0 6.064,-2.48 6.064,-5.744c0,-3.248 -2.592,-5.68 -6.064,-5.68ZM254.877,67.96c1.728,0 3.104,1.424 3.104,3.312c0,1.888 -1.376,3.344 -3.104,3.344c-1.712,0 -3.168,-1.456 -3.168,-3.344c0,-1.888 1.44,-3.312 3.168,-3.312Z" style="fill:#6f86a0;fill-rule:nonzero;"/><path d="M283.485,76.872l4.4,-11.2l-2.928,0l-2.864,8.24l-2.864,-8.24l-3.04,0l4.352,11.2l2.944,0Z" style="fill:#6f86a0;fill-rule:nonzero;"/><rect x="294.589" y="65.672" width="2.848" height="11.2" style="fill:#6f86a0;fill-rule:nonzero;"/><path d="M308.125,74.488l0,-8.816l-2.848,0l0,11.2l7.6,0l0,-2.384l-4.752,0Z" style="fill:#6f86a0;fill-rule:nonzero;"/><path d="M322.685,74.488l0,-8.816l-2.848,0l0,11.2l7.6,0l0,-2.384l-4.752,0Z" style="fill:#6f86a0;fill-rule:nonzero;"/><path d="M341.885,74.808l0.8,2.064l3.04,0l-4.72,-11.2l-2.928,0l-4.832,11.2l2.928,0l0.816,-2.064l4.896,0ZM341.053,72.648l-3.232,0l1.632,-4.144l1.6,4.144Z" style="fill:#6f86a0;fill-rule:nonzero;"/></g><g><path d="M35.05,2.004c-0.692,0.305 -1.16,0.867 -1.407,1.687c-0.246,0.821 -0.369,2.133 -0.369,3.938l0,26.367l0.035,5.906c0,5.907 -0.421,10.196 -1.265,12.868c-0.727,2.25 -2.01,4.259 -3.85,6.029c-1.84,1.769 -4.16,3.164 -6.961,4.183c-2.801,1.02 -5.935,1.53 -9.404,1.53c-3.516,0 -6.199,-0.457 -8.051,-1.371c-2.414,-1.196 -3.621,-2.989 -3.621,-5.379c0,-1.688 0.645,-3.035 1.934,-4.043c1.289,-1.008 3,-1.512 5.132,-1.512c2.016,0 3.598,0.451 4.747,1.354c1.148,0.902 1.722,2.22 1.722,3.955c0,1.125 -0.345,2.179 -1.037,3.164c-0.691,0.984 -1.74,1.734 -3.146,2.25c0.304,0.047 0.738,0.07 1.3,0.07c1.524,0 2.836,-0.428 3.938,-1.283c1.101,-0.856 1.91,-1.94 2.426,-3.252c0.492,-1.36 0.843,-2.766 1.054,-4.219c0.211,-1.453 0.34,-3.111 0.387,-4.975c0.047,-1.863 0.07,-4.775 0.07,-8.736l0,-32.906c0,-1.805 -0.128,-3.117 -0.386,-3.938c-0.258,-0.82 -0.733,-1.382 -1.424,-1.687c-0.692,-0.305 -1.799,-0.492 -3.322,-0.563l0,-1.441c2.601,0.141 6.632,0.211 12.093,0.211c5.555,0 9.809,-0.07 12.762,-0.211l0,1.441c-1.547,0.071 -2.666,0.258 -3.357,0.563Z" style="fill:#484848;fill-rule:nonzero;"/><path d="M82.461,49.535l0,1.442c-2.461,-0.141 -5.989,-0.211 -10.582,-0.211c-5.813,0 -10.09,0.07 -12.832,0.211l0,-1.442c1.476,-0.07 2.578,-0.322 3.304,-0.756c0.727,-0.433 1.09,-1.119 1.09,-2.056c0,-0.868 -0.305,-1.946 -0.914,-3.235l-3.551,-8.191l-13.5,0c-1.593,3.75 -2.39,6.726 -2.39,8.93c0,1.945 0.58,3.298 1.74,4.06c1.16,0.762 2.807,1.178 4.939,1.248l0,1.442c-3.586,-0.141 -6.726,-0.211 -9.422,-0.211c-2.25,0 -4.101,0.07 -5.554,0.211l0,-1.442c1.125,-0.187 2.191,-0.908 3.199,-2.162c1.008,-1.254 2.156,-3.346 3.445,-6.275l14.731,-33.891c0.726,0.094 1.523,0.141 2.39,0.141c0.914,0 1.711,-0.047 2.391,-0.141l17.262,37.723c1.429,3 2.847,4.535 4.254,4.605ZM52.226,19.688l-6.117,14.167l12.27,0l-6.153,-14.167Z" style="fill:#484848;fill-rule:nonzero;"/><path d="M124.247,12.621c4.465,3.609 6.697,8.906 6.697,15.891c0,4.523 -1.09,8.472 -3.27,11.847c-2.179,3.375 -5.337,5.989 -9.474,7.84c-4.137,1.852 -9.065,2.778 -14.783,2.778c-1.313,0 -2.989,-0.036 -5.028,-0.106c-4.922,-0.07 -7.324,-0.105 -7.207,-0.105c-4.594,0 -8.051,0.07 -10.371,0.211l0,-1.442c1.547,-0.07 2.666,-0.258 3.358,-0.562c0.691,-0.305 1.16,-0.868 1.406,-1.688c0.246,-0.82 0.369,-2.133 0.369,-3.937l0,-28.512c0,-1.828 -0.129,-3.152 -0.387,-3.973c-0.258,-0.82 -0.726,-1.377 -1.406,-1.67c-0.68,-0.293 -1.793,-0.474 -3.34,-0.545l0,-1.441c2.953,0.164 5.672,0.246 8.156,0.246l2.075,-0.035l3.586,-0.07c4.453,-0.094 7.605,-0.141 9.457,-0.141c8.976,0 15.697,1.805 20.162,5.414ZM101.237,9.018c-0.539,0.339 -0.908,0.937 -1.107,1.793c-0.2,0.855 -0.299,2.15 -0.299,3.884l0,28.793c0,1.758 0.099,3.059 0.299,3.903c0.199,0.843 0.574,1.435 1.125,1.775c0.55,0.34 1.4,0.51 2.548,0.51c3.235,0 5.784,-0.785 7.647,-2.356c1.863,-1.57 3.176,-3.867 3.937,-6.89c0.762,-3.024 1.143,-6.903 1.143,-11.637c0,-4.664 -0.41,-8.473 -1.231,-11.426c-0.82,-2.953 -2.162,-5.168 -4.025,-6.644c-1.863,-1.477 -4.377,-2.215 -7.541,-2.215c-1.125,0 -1.957,0.17 -2.496,0.51Z" style="fill:#484848;fill-rule:nonzero;"/><path d="M171.552,50.977c-3.117,-0.141 -8.379,-0.211 -15.785,-0.211c-10.547,0 -18.469,0.07 -23.766,0.211l0,-1.442c1.547,-0.07 2.666,-0.258 3.358,-0.562c0.691,-0.305 1.16,-0.868 1.406,-1.688c0.246,-0.82 0.369,-2.133 0.369,-3.937l0,-28.512c0,-1.805 -0.129,-3.117 -0.386,-3.938c-0.258,-0.82 -0.733,-1.382 -1.424,-1.687c-0.692,-0.305 -1.799,-0.492 -3.323,-0.563l0,-1.441c5.297,0.141 13.219,0.211 23.766,0.211c6.727,0 11.508,-0.07 14.344,-0.211c-0.352,3.656 -0.528,6.727 -0.528,9.211c0,1.969 0.083,3.457 0.247,4.465l-1.688,0c-0.961,-4.289 -2.484,-7.365 -4.57,-9.229c-2.086,-1.863 -4.735,-2.795 -7.946,-2.795l-0.914,0c-0.914,0 -1.629,0.094 -2.144,0.282c-0.516,0.187 -0.902,0.55 -1.16,1.089c-0.258,0.54 -0.387,1.348 -0.387,2.426l0,15.574l1.652,0c1.594,0 2.959,-0.416 4.096,-1.248c1.137,-0.832 2.033,-1.863 2.689,-3.093c0.657,-1.231 1.114,-2.479 1.372,-3.744l1.652,0c-0.164,1.781 -0.246,3.621 -0.246,5.519l0.035,3.27c0,2.343 0.141,5.273 0.422,8.789l-1.652,0c-0.352,-2.297 -1.249,-4.213 -2.69,-5.748c-1.441,-1.536 -3.334,-2.303 -5.678,-2.303l-1.652,0l0,15.82c0,1.078 0.129,1.893 0.387,2.444c0.258,0.55 0.644,0.919 1.16,1.107c0.515,0.187 1.23,0.281 2.144,0.281l1.653,0c3.351,0 6.146,-1.049 8.385,-3.146c2.238,-2.098 3.849,-5.537 4.833,-10.319l1.688,0c-0.164,1.289 -0.246,3.012 -0.246,5.168c0,2.649 0.176,5.965 0.527,9.95Z" style="fill:#484848;fill-rule:nonzero;"/><path d="M224.606,47.742c0.633,0.656 1.453,1.254 2.461,1.793l0,1.442c-4.055,-0.141 -8.379,-0.211 -12.973,-0.211c-3.539,0 -6.973,0.07 -10.301,0.211l0,-1.442c1.524,-0.07 2.596,-0.205 3.217,-0.404c0.621,-0.199 0.932,-0.522 0.932,-0.967c0,-0.375 -0.246,-0.996 -0.739,-1.863l-10.441,-17.649c-0.703,-1.172 -1.277,-1.974 -1.723,-2.408c-0.445,-0.433 -1.007,-0.697 -1.687,-0.791l0,17.895c0,1.804 0.129,3.117 0.387,3.937c0.257,0.82 0.732,1.383 1.423,1.688c0.692,0.304 1.799,0.492 3.323,0.562l0,1.442c-2.813,-0.141 -6.821,-0.211 -12.024,-0.211c-5.812,0 -10.09,0.07 -12.832,0.211l0,-1.442c1.547,-0.07 2.666,-0.258 3.358,-0.562c0.691,-0.305 1.16,-0.868 1.406,-1.688c0.246,-0.82 0.369,-2.133 0.369,-3.937l0,-35.719c0,-1.805 -0.129,-3.117 -0.387,-3.938c-0.257,-0.82 -0.732,-1.382 -1.423,-1.687c-0.692,-0.305 -1.799,-0.492 -3.323,-0.563l0,-1.441c2.742,0.141 7.02,0.211 12.832,0.211c5.203,0 9.211,-0.07 12.024,-0.211l0,1.441c-1.547,0.071 -2.666,0.258 -3.358,0.563c-0.691,0.305 -1.16,0.867 -1.406,1.687c-0.246,0.821 -0.369,2.133 -0.369,3.938l0,16.242c1.922,-0.141 3.791,-0.855 5.607,-2.144c1.817,-1.289 4.061,-3.422 6.733,-6.399l2.426,-2.742c2.132,-2.391 3.199,-4.547 3.199,-6.469c0,-1.406 -0.551,-2.531 -1.653,-3.375c-1.101,-0.844 -2.519,-1.301 -4.253,-1.371l0,-1.371c4.007,0.141 8.062,0.211 12.164,0.211c2.882,0 5.296,-0.07 7.242,-0.211l0,1.371c-4.172,1.125 -8.098,3.762 -11.778,7.91l-7.066,8.016l16.699,27.844c0.656,1.078 1.301,1.945 1.934,2.601Z" style="fill:#484848;fill-rule:nonzero;"/><path d="M264.652,50.977c-3.118,-0.141 -8.379,-0.211 -15.786,-0.211c-10.546,0 -18.468,0.07 -23.765,0.211l0,-1.442c1.547,-0.07 2.666,-0.258 3.357,-0.562c0.692,-0.305 1.16,-0.868 1.407,-1.688c0.246,-0.82 0.369,-2.133 0.369,-3.937l0,-28.512c0,-1.805 -0.129,-3.117 -0.387,-3.938c-0.258,-0.82 -0.732,-1.382 -1.424,-1.687c-0.691,-0.305 -1.799,-0.492 -3.322,-0.563l0,-1.441c5.297,0.141 13.219,0.211 23.765,0.211c6.727,0 11.508,-0.07 14.344,-0.211c-0.351,3.656 -0.527,6.727 -0.527,9.211c0,1.969 0.082,3.457 0.246,4.465l-1.688,0c-0.96,-4.289 -2.484,-7.365 -4.57,-9.229c-2.086,-1.863 -4.734,-2.795 -7.945,-2.795l-0.914,0c-0.914,0 -1.629,0.094 -2.145,0.282c-0.515,0.187 -0.902,0.55 -1.16,1.089c-0.258,0.54 -0.387,1.348 -0.387,2.426l0,15.574l1.653,0c1.593,0 2.959,-0.416 4.095,-1.248c1.137,-0.832 2.034,-1.863 2.69,-3.093c0.656,-1.231 1.113,-2.479 1.371,-3.744l1.652,0c-0.164,1.781 -0.246,3.621 -0.246,5.519l0.035,3.27c0,2.343 0.141,5.273 0.422,8.789l-1.652,0c-0.352,-2.297 -1.248,-4.213 -2.69,-5.748c-1.441,-1.536 -3.334,-2.303 -5.677,-2.303l-1.653,0l0,15.82c0,1.078 0.129,1.893 0.387,2.444c0.258,0.55 0.645,0.919 1.16,1.107c0.516,0.187 1.231,0.281 2.145,0.281l1.652,0c3.352,0 6.147,-1.049 8.385,-3.146c2.238,-2.098 3.849,-5.537 4.834,-10.319l1.687,0c-0.164,1.289 -0.246,3.012 -0.246,5.168c0,2.649 0.176,5.965 0.528,9.95Z" style="fill:#484848;fill-rule:nonzero;"/><path d="M308.389,7.207l0,1.441c-1.102,0.54 -2.256,1.559 -3.463,3.059c-1.207,1.5 -2.596,3.668 -4.166,6.504l-6.188,11.672l0,12.726c0,1.993 0.188,3.452 0.563,4.377c0.375,0.926 1.055,1.565 2.039,1.916c0.984,0.352 2.543,0.563 4.676,0.633l0,1.442c-2.672,-0.141 -7.524,-0.211 -14.555,-0.211c-6.937,0 -11.566,0.07 -13.887,0.211l0,-1.442c2.133,-0.07 3.692,-0.281 4.676,-0.633c0.984,-0.351 1.664,-0.99 2.039,-1.916c0.375,-0.925 0.563,-2.384 0.563,-4.377l0,-8.015l-12.235,-21.832c-0.773,-1.336 -1.47,-2.309 -2.091,-2.918c-0.622,-0.61 -1.319,-0.985 -2.092,-1.125l0,-1.512c2.953,0.281 6.269,0.422 9.949,0.422c3.726,0 8.519,-0.141 14.379,-0.422l0,1.512c-2.813,0 -4.219,0.609 -4.219,1.828c0,0.375 0.164,0.867 0.492,1.476l8.895,16.137l1.828,-3.48c2.391,-4.477 3.586,-8.051 3.586,-10.723c0,-3.375 -1.922,-5.144 -5.766,-5.309l0,-1.441c3.633,0.141 6.785,0.211 9.457,0.211c2.25,0 4.09,-0.07 5.52,-0.211Z" style="fill:#484848;fill-rule:nonzero;"/><path d="M338.31,8.859c0.75,0.422 1.271,0.698 1.564,0.827c0.293,0.128 0.592,0.193 0.897,0.193c0.445,0 0.785,-0.258 1.019,-0.774c0.234,-0.515 0.422,-1.324 0.563,-2.425l1.652,0c-0.234,3.117 -0.352,8.496 -0.352,16.136l-1.652,0c-0.445,-3.281 -1.313,-6.035 -2.602,-8.261c-1.289,-2.227 -2.894,-3.891 -4.816,-4.992c-1.922,-1.102 -4.066,-1.653 -6.434,-1.653c-2.273,0 -4.089,0.428 -5.449,1.283c-1.359,0.856 -2.039,1.987 -2.039,3.393c0,1.195 0.428,2.338 1.283,3.428c0.856,1.09 1.981,2.138 3.375,3.146c1.395,1.008 3.463,2.379 6.205,4.113l0.879,0.563c2.836,1.664 5.174,3.187 7.014,4.57c1.84,1.383 3.387,3.018 4.641,4.905c1.254,1.886 1.88,4.037 1.88,6.451c0,2.648 -0.826,4.886 -2.478,6.715c-1.652,1.828 -3.967,3.205 -6.943,4.13c-2.977,0.926 -6.434,1.389 -10.371,1.389c-2.11,0 -4.002,-0.228 -5.678,-0.685c-1.676,-0.457 -3.498,-1.084 -5.467,-1.881l-0.809,-0.317c-1.265,-0.539 -2.109,-0.808 -2.531,-0.808c-0.422,0 -0.75,0.246 -0.984,0.738c-0.235,0.492 -0.434,1.301 -0.598,2.426l-1.652,0c0.187,-2.883 0.281,-9.117 0.281,-18.703l1.688,0c0.234,3.679 0.984,6.82 2.25,9.421c1.265,2.602 3,4.583 5.203,5.942c2.203,1.359 4.804,2.039 7.804,2.039c2.039,0 3.785,-0.457 5.239,-1.371c1.453,-0.914 2.179,-2.297 2.179,-4.149c0,-1.195 -0.299,-2.267 -0.896,-3.216c-0.598,-0.95 -1.512,-1.899 -2.742,-2.848c-1.231,-0.949 -2.971,-2.127 -5.221,-3.533c-3.234,-1.946 -5.936,-3.733 -8.104,-5.362c-2.168,-1.628 -3.925,-3.41 -5.273,-5.343c-1.348,-1.934 -2.022,-4.002 -2.022,-6.205c0,-2.602 0.792,-4.793 2.374,-6.575c1.582,-1.781 3.767,-3.123 6.556,-4.025c2.789,-0.902 6,-1.353 9.633,-1.353c4.055,0 7.699,0.89 10.934,2.671Z" style="fill:#484848;fill-rule:nonzero;"/></g></g></svg>